# xmcd
# 
# Track frame offsets:
#     150
#     19280
#     35895
#     60347
#     78485
#     99740
#     119430
#     136980
#     160485
#     178425
#     207412
# 
# Disc length: 3137
# 
# Revision: 1
# Processed by: cddbd v1.5.2PL0 Copyright (c) Steve Scherf et al.
# Submitted via: fre:ac v1.0.27
# 
DISCID=a30c3f0b
DTITLE=Marius Müller-Westernhagen - so weit... [CD2)
DYEAR=2000
DGENRE=Rock
TTITLE0=Nur ein Traum
TTITLE1=Rosamunde
TTITLE2=Taximann
TTITLE3=Tanz mit dem Teufel
TTITLE4=Supermann
TTITLE5=Wir waren noch Kinder
TTITLE6=Krieg
TTITLE7=Ganz und Gar
TTITLE8=Ladykiller
TTITLE9=Kein Gefühl (Affentheater-Session)
TTITLE10=Durch deine Liebe
EXTD=YEAR: 2000
EXTT0=
EXTT1=
EXTT2=
EXTT3=
EXTT4=
EXTT5=
EXTT6=
EXTT7=
EXTT8=
EXTT9=
EXTT10=
PLAYORDER=
